<svg id="visual" viewBox="0 0 900 600" width="900" height="600" xmlns="http://www.w3.org/2000/svg" xmlns:xlink="http://www.w3.org/1999/xlink" version="1.1"><path d="M0 242L21.5 247.3C43 252.7 86 263.3 128.8 270.7C171.7 278 214.3 282 257.2 272.3C300 262.7 343 239.3 385.8 231.8C428.7 224.3 471.3 232.7 514.2 230.7C557 228.7 600 216.3 642.8 225.3C685.7 234.3 728.3 264.7 771.2 266.3C814 268 857 241 878.5 227.5L900 214L900 601L878.5 601C857 601 814 601 771.2 601C728.3 601 685.7 601 642.8 601C600 601 557 601 514.2 601C471.3 601 428.7 601 385.8 601C343 601 300 601 257.2 601C214.3 601 171.7 601 128.8 601C86 601 43 601 21.5 601L0 601Z" fill="#0fdbf7"></path><path d="M0 328L21.5 326.5C43 325 86 322 128.8 327.5C171.7 333 214.3 347 257.2 353C300 359 343 357 385.8 349C428.7 341 471.3 327 514.2 327.3C557 327.7 600 342.3 642.8 335.7C685.7 329 728.3 301 771.2 299.8C814 298.7 857 324.3 878.5 337.2L900 350L900 601L878.5 601C857 601 814 601 771.2 601C728.3 601 685.7 601 642.8 601C600 601 557 601 514.2 601C471.3 601 428.7 601 385.8 601C343 601 300 601 257.2 601C214.3 601 171.7 601 128.8 601C86 601 43 601 21.5 601L0 601Z" fill="#00bcfc"></path><path d="M0 381L21.5 387C43 393 86 405 128.8 412C171.7 419 214.3 421 257.2 410.2C300 399.3 343 375.7 385.8 373.2C428.7 370.7 471.3 389.3 514.2 389.2C557 389 600 370 642.8 359.8C685.7 349.7 728.3 348.3 771.2 351.7C814 355 857 363 878.5 367L900 371L900 601L878.5 601C857 601 814 601 771.2 601C728.3 601 685.7 601 642.8 601C600 601 557 601 514.2 601C471.3 601 428.7 601 385.8 601C343 601 300 601 257.2 601C214.3 601 171.7 601 128.8 601C86 601 43 601 21.5 601L0 601Z" fill="#0098f4"></path><path d="M0 459L21.5 462.2C43 465.3 86 471.7 128.8 472.3C171.7 473 214.3 468 257.2 462.5C300 457 343 451 385.8 443.8C428.7 436.7 471.3 428.3 514.2 425.8C557 423.3 600 426.7 642.8 428.8C685.7 431 728.3 432 771.2 436.5C814 441 857 449 878.5 453L900 457L900 601L878.5 601C857 601 814 601 771.2 601C728.3 601 685.7 601 642.8 601C600 601 557 601 514.2 601C471.3 601 428.7 601 385.8 601C343 601 300 601 257.2 601C214.3 601 171.7 601 128.8 601C86 601 43 601 21.5 601L0 601Z" fill="#0071e2"></path><path d="M0 525L21.5 520.3C43 515.7 86 506.3 128.8 506.7C171.7 507 214.3 517 257.2 517C300 517 343 507 385.8 503.5C428.7 500 471.3 503 514.2 507.5C557 512 600 518 642.8 524.3C685.7 530.7 728.3 537.3 771.2 540C814 542.7 857 541.3 878.5 540.7L900 540L900 601L878.5 601C857 601 814 601 771.2 601C728.3 601 685.7 601 642.8 601C600 601 557 601 514.2 601C471.3 601 428.7 601 385.8 601C343 601 300 601 257.2 601C214.3 601 171.7 601 128.8 601C86 601 43 601 21.5 601L0 601Z" fill="#2446c7"></path></svg>